<?xml version="1.0" encoding="UTF-8" standalone="no"?>
<!-- Created with Inkscape (http://www.inkscape.org/) -->

<svg
   id="svg1306"
   sodipodi:docname="stormcenter_icon_link.svg"
   viewBox="0 0 48 39.2"
   sodipodi:version="0.32"
   inkscape:output_extension="org.inkscape.output.svg.inkscape"
   inkscape:version="1.1.2 (b8e25be833, 2022-02-05)"
   version="1.1"
   width="48"
   height="39.200001"
   xmlns:inkscape="http://www.inkscape.org/namespaces/inkscape"
   xmlns:sodipodi="http://sodipodi.sourceforge.net/DTD/sodipodi-0.dtd"
   xmlns:xlink="http://www.w3.org/1999/xlink"
   xmlns="http://www.w3.org/2000/svg"
   xmlns:svg="http://www.w3.org/2000/svg"
   xmlns:rdf="http://www.w3.org/1999/02/22-rdf-syntax-ns#"
   xmlns:cc="http://creativecommons.org/ns#"
   xmlns:dc="http://purl.org/dc/elements/1.1/">
  <defs
     id="defs1308">
    <linearGradient
       id="linearGradient13493"
       y2="-436.82999"
       xlink:href="#linearGradient6549"
       gradientUnits="userSpaceOnUse"
       x2="288.89999"
       y1="-441.23001"
       x1="284.79999"
       inkscape:collect="always" />
    <linearGradient
       id="linearGradient13491"
       y2="-436.70999"
       xlink:href="#linearGradient6549"
       gradientUnits="userSpaceOnUse"
       x2="289.76999"
       y1="-439.48001"
       x1="286.67001"
       inkscape:collect="always" />
    <linearGradient
       id="linearGradient13489"
       y2="-431.92001"
       xlink:href="#linearGradient6549"
       gradientUnits="userSpaceOnUse"
       x2="279.98001"
       gradientTransform="translate(-35,207)"
       y1="-437.10999"
       x1="275.94"
       inkscape:collect="always" />
    <linearGradient
       id="linearGradient13487"
       y2="-436.44"
       xlink:href="#linearGradient6549"
       gradientUnits="userSpaceOnUse"
       x2="289.39001"
       y1="-439.94"
       x1="285.94"
       inkscape:collect="always" />
    <linearGradient
       id="linearGradient13485"
       y2="-436.14001"
       xlink:href="#linearGradient6549"
       gradientUnits="userSpaceOnUse"
       x2="289.85001"
       y1="-441.29001"
       x1="286.51001"
       inkscape:collect="always" />
    <linearGradient
       id="linearGradient13483"
       y2="-436.32001"
       xlink:href="#linearGradient6549"
       gradientUnits="userSpaceOnUse"
       x2="289.67999"
       y1="-439.75"
       x1="287.51999"
       inkscape:collect="always" />
    <linearGradient
       id="linearGradient13480"
       y2="-431.97"
       xlink:href="#linearGradient6549"
       gradientUnits="userSpaceOnUse"
       x2="285.03"
       gradientTransform="translate(-34,207)"
       y1="-441.04999"
       x1="271.01999"
       inkscape:collect="always" />
    <linearGradient
       id="linearGradient6549"
       inkscape:collect="always">
      <stop
         id="stop6551"
         style="stop-color:#ffffff"
         offset="0" />
      <stop
         id="stop6553"
         style="stop-color:#ffffff;stop-opacity:0"
         offset="1" />
    </linearGradient>
    <linearGradient
       id="linearGradient13464"
       y2="-382.64999"
       gradientUnits="userSpaceOnUse"
       x2="245.64999"
       y1="-388.47"
       x1="238"
       inkscape:collect="always">
      <stop
         id="stop8400"
         style="stop-color:#ffffff"
         offset="0" />
      <stop
         id="stop8402"
         style="stop-color:#ffffff;stop-opacity:0"
         offset="1" />
    </linearGradient>
    <linearGradient
       id="linearGradient13462"
       y2="-386.95999"
       gradientUnits="userSpaceOnUse"
       x2="235.25999"
       y1="-390.44"
       x1="230.88"
       inkscape:collect="always">
      <stop
         id="stop8317"
         style="stop-color:#ffffff"
         offset="0" />
      <stop
         id="stop8319"
         style="stop-color:#ffffff;stop-opacity:0"
         offset="1" />
    </linearGradient>
    <linearGradient
       id="linearGradient13460"
       y2="-385.35001"
       gradientUnits="userSpaceOnUse"
       x2="252.7"
       y1="-391.31"
       x1="246.74001"
       inkscape:collect="always">
      <stop
         id="stop8383"
         style="stop-color:#ffffff"
         offset="0" />
      <stop
         id="stop8385"
         style="stop-color:#ffffff;stop-opacity:0"
         offset="1" />
    </linearGradient>
    <linearGradient
       id="linearGradient13458"
       y2="-388.54999"
       gradientUnits="userSpaceOnUse"
       x2="245.83"
       y1="-393.41"
       x1="240.07001"
       inkscape:collect="always">
      <stop
         id="stop8333"
         style="stop-color:#ffffff"
         offset="0" />
      <stop
         id="stop8335"
         style="stop-color:#ffffff;stop-opacity:0"
         offset="1" />
    </linearGradient>
    <linearGradient
       id="linearGradient13456"
       y2="-379.26999"
       gradientUnits="userSpaceOnUse"
       x2="266.35999"
       gradientTransform="translate(69,155)"
       y1="-392.31"
       x1="228.5"
       inkscape:collect="always">
      <stop
         id="stop8304"
         style="stop-color:#ffffff"
         offset="0" />
      <stop
         id="stop8306"
         style="stop-color:#ffffff;stop-opacity:0"
         offset="1" />
    </linearGradient>
    <linearGradient
       id="linearGradient10815"
       y2="52.331001"
       gradientUnits="userSpaceOnUse"
       x2="25.598"
       gradientTransform="matrix(0.87498,0,0,0.92148,226.24,-218.57)"
       y1="30.282"
       x1="8.5468998"
       inkscape:collect="always">
      <stop
         id="stop6529"
         style="stop-color:#ffffff"
         offset="0" />
      <stop
         id="stop6531"
         style="stop-color:#ffffff;stop-opacity:.34021"
         offset="1" />
    </linearGradient>
    <linearGradient
       inkscape:collect="always"
       xlink:href="#linearGradient6549"
       id="linearGradient7770"
       gradientUnits="userSpaceOnUse"
       gradientTransform="translate(-34,207)"
       x1="271.01999"
       y1="-441.04999"
       x2="285.03"
       y2="-431.97" />
    <linearGradient
       inkscape:collect="always"
       xlink:href="#linearGradient6549"
       id="linearGradient7772"
       gradientUnits="userSpaceOnUse"
       x1="287.51999"
       y1="-439.75"
       x2="289.67999"
       y2="-436.32001" />
    <linearGradient
       inkscape:collect="always"
       xlink:href="#linearGradient6549"
       id="linearGradient7774"
       gradientUnits="userSpaceOnUse"
       x1="286.51001"
       y1="-441.29001"
       x2="289.85001"
       y2="-436.14001" />
    <linearGradient
       inkscape:collect="always"
       xlink:href="#linearGradient6549"
       id="linearGradient7776"
       gradientUnits="userSpaceOnUse"
       x1="285.94"
       y1="-439.94"
       x2="289.39001"
       y2="-436.44" />
    <linearGradient
       inkscape:collect="always"
       xlink:href="#linearGradient6549"
       id="linearGradient7778"
       gradientUnits="userSpaceOnUse"
       gradientTransform="translate(-35,207)"
       x1="275.94"
       y1="-437.10999"
       x2="279.98001"
       y2="-431.92001" />
    <linearGradient
       inkscape:collect="always"
       xlink:href="#linearGradient6549"
       id="linearGradient7780"
       gradientUnits="userSpaceOnUse"
       x1="286.67001"
       y1="-439.48001"
       x2="289.76999"
       y2="-436.70999" />
    <linearGradient
       inkscape:collect="always"
       xlink:href="#linearGradient6549"
       id="linearGradient7782"
       gradientUnits="userSpaceOnUse"
       x1="284.79999"
       y1="-441.23001"
       x2="288.89999"
       y2="-436.82999" />
  </defs>
  <sodipodi:namedview
     id="base"
     bordercolor="#666666"
     inkscape:pageshadow="2"
     inkscape:window-y="-8"
     pagecolor="#ffffff"
     inkscape:window-height="961"
     inkscape:grid-bbox="true"
     inkscape:zoom="8"
     inkscape:window-x="-8"
     showgrid="true"
     borderopacity="1.0"
     inkscape:current-layer="layer1"
     inkscape:cx="22.0625"
     inkscape:cy="35"
     showguides="true"
     inkscape:guide-bbox="true"
     inkscape:showpageshadow="false"
     inkscape:window-width="1600"
     inkscape:pageopacity="0.0"
     inkscape:document-units="px"
     inkscape:pagecheckerboard="0"
     inkscape:window-maximized="1" />
  <g
     id="layer1"
     inkscape:label="Layer 1"
     inkscape:groupmode="layer">
    <g
       id="g13354"
       transform="matrix(0.99968,0,0,1,-286.93,243.03)">
      <g
         id="g13356">
        <path
           id="path13358"
           style="fill:#555753"
           d="m 311.5,-243 c -2.77,0 -5.11,1.57 -6.41,3.81 -0.94,-0.47 -1.96,-0.81 -3.09,-0.81 -3.86,0 -7,3.14 -7,7 0,3.86 3.14,7 7,7 2.42,0 4.43,-1.32 5.69,-3.19 1.13,0.69 2.39,1.19 3.81,1.19 0.91,0 1.75,-0.23 2.56,-0.53 0.51,0.87 1.18,1.58 2,2.16 0,0.13 -0.06,0.24 -0.06,0.37 0,3.86 3.14,7 7,7 3.86,0 7,-3.14 7,-7 0,-2.37 -1.26,-4.36 -3.06,-5.62 0,-0.14 0.06,-0.25 0.06,-0.38 0,-3.86 -3.14,-7 -7,-7 -0.62,0 -1.18,0.22 -1.75,0.38 -1.19,-2.56 -3.74,-4.38 -6.75,-4.38 z" />
        <path
           id="path13360"
           style="fill:url(#linearGradient13456)"
           d="m 311.5,-242 c -2.78,0 -5.13,1.76 -6.06,4.22 -0.99,-0.71 -2.13,-1.22 -3.44,-1.22 -3.31,0 -6,2.69 -6,6 0,3.31 2.69,6 6,6 2.43,0 4.49,-1.46 5.44,-3.53 1.12,0.92 2.5,1.53 4.06,1.53 1.07,0 2.04,-0.32 2.94,-0.78 0.4,1 1.1,1.79 1.94,2.44 -0.19,0.59 -0.38,1.19 -0.38,1.84 0,3.59 2.91,6.5 6.5,6.5 3.59,0 6.5,-2.91 6.5,-6.5 0,-2.36 -1.33,-4.33 -3.22,-5.47 0.06,-0.35 0.22,-0.66 0.22,-1.03 0,-3.31 -2.69,-6 -6,-6 -0.85,0 -1.67,0.18 -2.41,0.5 -0.85,-2.59 -3.21,-4.5 -6.09,-4.5 z" />
        <path
           id="path13362"
           style="fill:#888a85"
           transform="matrix(0.96445,0,0,0.96445,89.289,144.53)"
           cx="241.80843"
           cy="-383.6666"
           r="6.7396116" />
        <g
           id="g13364">
          <path
             id="path13366"
             style="fill:#888a85"
             transform="matrix(0.88263,0,0,0.88263,96.181,108.11)"
             cx="243.95184"
             cy="-389.30136"
             r="6.2313786" />
          <path
             id="path13368"
             style="opacity:0.49444;fill:url(#linearGradient13458)"
             transform="matrix(0.88263,0,0,0.88263,96.181,108.11)"
             cx="243.95184"
             cy="-389.30136"
             r="6.2313786" />
        </g>
        <g
           id="g13370">
          <path
             id="path13372"
             style="fill:#888a85"
             transform="matrix(0.91173,0,0,0.91173,90.454,120.23)"
             cx="251.22179"
             cy="-385.7879"
             r="6.0325046" />
          <path
             id="path13374"
             style="opacity:0.49444;fill:url(#linearGradient13460)"
             transform="matrix(0.91173,0,0,0.91173,90.454,120.23)"
             cx="251.22179"
             cy="-385.7879"
             r="6.0325046" />
        </g>
        <g
           id="g13376">
          <path
             id="path13378"
             style="fill:#888a85"
             transform="matrix(1.1428,0,0,1.1428,35.232,210.28)"
             cx="233.43362"
             cy="-387.88715"
             r="4.3752232" />
          <path
             id="path13380"
             style="opacity:0.49444;fill:url(#linearGradient13462)"
             transform="matrix(1.1428,0,0,1.1428,35.232,210.28)"
             cx="233.43362"
             cy="-387.88715"
             r="4.3752232" />
        </g>
        <g
           id="g13382">
          <path
             id="path13384"
             style="fill:#888a85"
             transform="matrix(1.0386,0,0,1.0386,59.849,169.49)"
             cx="241.80843"
             cy="-383.6666"
             r="6.7396116" />
          <path
             id="path13386"
             style="opacity:0.49444;fill:url(#linearGradient13464)"
             transform="matrix(1.0386,0,0,1.0386,59.849,169.49)"
             cx="241.80843"
             cy="-383.6666"
             r="6.7396116" />
        </g>
      </g>
      <g
         id="g13388"
         transform="translate(72,7.9999)">
        <path
           id="path13390"
           sodipodi:nodetypes="ccsscsssscsscc"
           style="fill:#888a85;stroke:#555753;stroke-width:1.0002;stroke-miterlimit:2"
           d="m 246.5,-238.5 c -2.27,0 -4.11,1.55 -4.72,3.63 -0.69,-0.37 -1.44,-0.63 -2.28,-0.63 -2.76,0 -5,2.24 -5,5 0,0.58 0.16,1.11 0.34,1.63 -1.37,0.77 -2.34,2.18 -2.34,3.87 0,2.48 2.02,4.5 4.5,4.5 h 19 c 2.48,0 4.5,-2.02 4.5,-4.5 0,-1.69 -0.97,-3.1 -2.34,-3.87 0.18,-0.52 0.34,-1.05 0.34,-1.63 0,-2.76 -2.24,-5 -5,-5 -0.84,0 -1.59,0.26 -2.28,0.63 -0.61,-2.08 -2.45,-3.63 -4.72,-3.63 z" />
        <path
           id="path13392"
           sodipodi:nodetypes="ccsscsssscsscc"
           style="fill:url(#linearGradient7770)"
           d="m 246.5,-238 c -2.19,0 -3.72,1.34 -4.4,3.84 -0.66,-0.34 -1.54,-0.83 -2.35,-0.83 -2.72,0 -4.76,1.94 -4.76,4.55 0,0.54 0.27,1.33 0.45,1.82 -1.33,0.73 -2.44,1.89 -2.44,3.37 0,2.35 1.55,4.25 4.34,4.25 h 18.32 c 2.77,0 4.34,-1.9 4.34,-4.25 0,-1.59 -1.11,-2.67 -2.44,-3.39 0.18,-0.49 0.47,-1.26 0.47,-1.8 0,-2.61 -2.12,-4.57 -4.78,-4.57 -0.81,0 -1.64,0.49 -2.31,0.83 -0.65,-2.42 -2.25,-3.82 -4.44,-3.82 z" />
        <path
           id="path13394"
           style="fill:#888a85"
           transform="matrix(1.0566,0,0,1.0566,-58.198,228.86)"
           cx="288.375"
           cy="-437.59375"
           r="3.3125" />
        <path
           id="path13396"
           style="opacity:0.47778;fill:url(#linearGradient7772)"
           transform="matrix(1.0566,0,0,1.0566,-58.198,228.86)"
           cx="288.375"
           cy="-437.59375"
           r="3.3125" />
        <rect
           id="rect13398"
           style="fill:#888a85"
           height="9"
           width="20"
           y="-231"
           x="237" />
        <path
           id="path13400"
           style="fill:#888a85"
           transform="matrix(0.90566,0,0,0.90566,-24.17,171.31)"
           cx="288.375"
           cy="-437.59375"
           r="3.3125" />
        <path
           id="path13402"
           style="fill:#888a85"
           transform="matrix(1.0566,0,0,1.0566,-51.198,231.86)"
           cx="288.375"
           cy="-437.59375"
           r="3.3125" />
        <path
           id="path13404"
           style="opacity:0.47778;fill:url(#linearGradient7774)"
           transform="matrix(1.0566,0,0,1.0566,-51.198,231.86)"
           cx="288.375"
           cy="-437.59375"
           r="3.3125" />
        <path
           id="path13406"
           style="fill:#888a85"
           transform="matrix(1.0566,0,0,1.0566,-65.198,231.86)"
           cx="288.375"
           cy="-437.59375"
           r="3.3125" />
        <path
           id="path13408"
           style="opacity:0.47778;fill:url(#linearGradient7776)"
           transform="matrix(1.0566,0,0,1.0566,-65.198,231.86)"
           cx="288.375"
           cy="-437.59375"
           r="3.3125" />
        <path
           id="path13410"
           style="fill:#888a85"
           d="m 245.47,-233.97 c -3.58,0 -6.47,2.92 -6.47,6.5 0,2.37 1.35,4.34 3.25,5.47 h 6.47 c 1.9,-1.13 3.25,-3.13 3.25,-5.5 0,-3.58 -2.92,-6.47 -6.5,-6.47 z" />
        <path
           id="path13412"
           style="opacity:0.47778;fill:url(#linearGradient7778)"
           d="m 245.5,-234 c -3.59,0 -6.5,2.91 -6.5,6.5 0,2.38 1.34,4.37 3.25,5.5 h 6.5 c 1.91,-1.13 3.25,-3.12 3.25,-5.5 0,-3.59 -2.91,-6.5 -6.5,-6.5 z" />
        <path
           id="path13414"
           style="opacity:0.47778;fill:url(#linearGradient7780)"
           transform="matrix(0.90566,0,0,0.90566,-24.17,171.31)"
           cx="288.375"
           cy="-437.59375"
           r="3.3125" />
        <path
           id="path13416"
           sodipodi:nodetypes="ccss"
           style="fill:#555753;fill-rule:evenodd"
           d="m 258.96,-230.33 c -0.01,2.68 -3.27,3.71 -3.27,3.71 0,0 2.35,-1.63 2.33,-3.7 0,0 0.94,-0.01 0.94,-0.01 z" />
        <path
           id="path13418"
           style="fill:#888a85"
           transform="matrix(1.2075,0,0,1.2075,-98.227,302.42)"
           cx="288.375"
           cy="-437.59375"
           r="3.3125" />
        <path
           id="path13420"
           style="opacity:0.47778;fill:url(#linearGradient7782)"
           transform="matrix(1.2075,0,0,1.2075,-98.227,302.42)"
           cx="288.375"
           cy="-437.59375"
           r="3.3125" />
      </g>
      <g
         id="g13422"
         transform="translate(56.986,3.9839)">
        <path
           id="path13424"
           sodipodi:nodetypes="ccsscsssscsscc"
           style="fill:#888a85;stroke:#555753;stroke-width:1.0002;stroke-miterlimit:2"
           d="m 246.5,-238.5 c -2.27,0 -4.11,1.55 -4.72,3.63 -0.69,-0.37 -1.44,-0.63 -2.28,-0.63 -2.76,0 -5,2.24 -5,5 0,0.58 0.16,1.11 0.34,1.63 -1.37,0.77 -2.34,2.18 -2.34,3.87 0,2.48 2.02,4.5 4.5,4.5 h 19 c 2.48,0 4.5,-2.02 4.5,-4.5 0,-1.69 -0.97,-3.1 -2.34,-3.87 0.18,-0.52 0.34,-1.05 0.34,-1.63 0,-2.76 -2.24,-5 -5,-5 -0.84,0 -1.59,0.26 -2.28,0.63 -0.61,-2.08 -2.45,-3.63 -4.72,-3.63 z" />
        <path
           id="path13426"
           sodipodi:nodetypes="ccsscsssscsscc"
           style="fill:url(#linearGradient13480)"
           d="m 246.5,-238 c -2.19,0 -3.72,1.34 -4.4,3.84 -0.66,-0.34 -1.54,-0.83 -2.35,-0.83 -2.72,0 -4.76,1.94 -4.76,4.55 0,0.54 0.27,1.33 0.45,1.82 -1.33,0.73 -2.44,1.89 -2.44,3.37 0,2.35 1.55,4.25 4.34,4.25 h 18.32 c 2.77,0 4.34,-1.9 4.34,-4.25 0,-1.59 -1.11,-2.67 -2.44,-3.39 0.18,-0.49 0.47,-1.26 0.47,-1.8 0,-2.61 -2.12,-4.57 -4.78,-4.57 -0.81,0 -1.64,0.49 -2.31,0.83 -0.65,-2.42 -2.25,-3.82 -4.44,-3.82 z" />
        <path
           id="path13428"
           style="fill:#888a85"
           transform="matrix(1.0566,0,0,1.0566,-58.198,228.86)"
           cx="288.375"
           cy="-437.59375"
           r="3.3125" />
        <path
           id="path13430"
           style="opacity:0.47778;fill:url(#linearGradient13483)"
           transform="matrix(1.0566,0,0,1.0566,-58.198,228.86)"
           cx="288.375"
           cy="-437.59375"
           r="3.3125" />
        <rect
           id="rect13432"
           style="fill:#888a85"
           height="9"
           width="20"
           y="-231"
           x="237" />
        <path
           id="path13434"
           style="fill:#888a85"
           transform="matrix(0.90566,0,0,0.90566,-24.17,171.31)"
           cx="288.375"
           cy="-437.59375"
           r="3.3125" />
        <path
           id="path13436"
           style="fill:#888a85"
           transform="matrix(1.0566,0,0,1.0566,-51.198,231.86)"
           cx="288.375"
           cy="-437.59375"
           r="3.3125" />
        <path
           id="path13438"
           style="opacity:0.47778;fill:url(#linearGradient13485)"
           transform="matrix(1.0566,0,0,1.0566,-51.198,231.86)"
           cx="288.375"
           cy="-437.59375"
           r="3.3125" />
        <path
           id="path13440"
           style="fill:#888a85"
           transform="matrix(1.0566,0,0,1.0566,-65.198,231.86)"
           cx="288.375"
           cy="-437.59375"
           r="3.3125" />
        <path
           id="path13442"
           style="opacity:0.47778;fill:url(#linearGradient13487)"
           transform="matrix(1.0566,0,0,1.0566,-65.198,231.86)"
           cx="288.375"
           cy="-437.59375"
           r="3.3125" />
        <path
           id="path13444"
           style="fill:#888a85"
           d="m 245.47,-233.97 c -3.58,0 -6.47,2.92 -6.47,6.5 0,2.37 1.35,4.34 3.25,5.47 h 6.47 c 1.9,-1.13 3.25,-3.13 3.25,-5.5 0,-3.58 -2.92,-6.47 -6.5,-6.47 z" />
        <path
           id="path13446"
           style="opacity:0.47778;fill:url(#linearGradient13489)"
           d="m 245.5,-234 c -3.59,0 -6.5,2.91 -6.5,6.5 0,2.38 1.34,4.37 3.25,5.5 h 6.5 c 1.91,-1.13 3.25,-3.12 3.25,-5.5 0,-3.59 -2.91,-6.5 -6.5,-6.5 z" />
        <path
           id="path13448"
           style="opacity:0.47778;fill:url(#linearGradient13491)"
           transform="matrix(0.90566,0,0,0.90566,-24.17,171.31)"
           cx="288.375"
           cy="-437.59375"
           r="3.3125" />
        <path
           id="path13450"
           sodipodi:nodetypes="ccss"
           style="fill:#555753;fill-rule:evenodd"
           d="m 258.96,-230.33 c -0.01,2.68 -3.27,3.71 -3.27,3.71 0,0 2.35,-1.63 2.33,-3.7 0,0 0.94,-0.01 0.94,-0.01 z" />
        <path
           id="path13452"
           style="fill:#888a85"
           transform="matrix(1.2075,0,0,1.2075,-98.227,302.42)"
           cx="288.375"
           cy="-437.59375"
           r="3.3125" />
        <path
           id="path13454"
           style="opacity:0.47778;fill:url(#linearGradient13493)"
           transform="matrix(1.2075,0,0,1.2075,-98.227,302.42)"
           cx="288.375"
           cy="-437.59375"
           r="3.3125" />
      </g>
    </g>
    <g
       id="g10804"
       transform="translate(-220.92,217.38)">
      <path
         id="path9775"
         style="fill:#cc0000;stroke:#9f0000"
         d="m 257.22,-181.39 -10.94,-20.52 c -0.32,-0.57 -0.88,-0.89 -1.51,-0.89 -0.63,0 -1.2,0.38 -1.51,0.95 l -10.69,20.52 c -0.26,0.51 -0.26,1.2 0.06,1.71 0.31,0.51 0.82,0.76 1.45,0.76 h 21.63 c 0.63,0 1.2,-0.32 1.45,-0.82 0.32,-0.51 0.32,-1.14 0.06,-1.71 z" />
      <g
         id="g9777"
         style="fill:#ffffff;stroke:#000000"
         transform="matrix(0.61143,0,0,0.64574,230.16,-206.16)">
        <path
           id="path9785"
           style="fill:#ffffff"
           d="m 9.5,37.6 c -0.3,0.5 0,0.9 0.5,0.9 h 28.2 c 0.5,0 0.8,-0.4 0.5,-0.9 L 24.4,11 c -0.3,-0.5 -0.7,-0.5 -0.9,0 z" />
      </g>
      <g
         id="g9787"
         style="stroke:#000000"
         transform="matrix(0.57337,0,0,0.57471,231.08,-204.27)">
        <path
           id="path9789"
           d="m 23.9,36.5 c -1.3,0 -2.3,-1 -2.3,-2.3 0,-1.4 0.9,-2.3 2.3,-2.3 1.4,0 2.2,0.9 2.3,2.3 0,1.3 -0.9,2.3 -2.3,2.3 z M 22.5,30.6 21.9,19.1 h 4 l -0.6,11.5 h -2.9 z" />
      </g>
      <path
         id="path9791"
         sodipodi:nodetypes="ccsccscccc"
         style="opacity:0.5;fill:none;stroke:url(#linearGradient10815)"
         d="m 255.87,-182.09 -9.9,-18.65 c -0.42,-0.81 -0.57,-1.07 -1.21,-1.07 -0.54,0 -0.83,0.38 -1.22,1.14 l -9.64,18.64 c -0.56,1.05 -0.62,1.32 -0.34,1.78 0.27,0.46 0.62,0.44 1.91,0.47 h 19.09 c 1.2,0.01 1.47,-0.08 1.69,-0.54 0.27,-0.46 0.15,-0.83 -0.38,-1.77 z" />
    </g>
  </g>
  <metadata
     id="metadata7696">
    <rdf:RDF>
      <cc:Work>
        <dc:format>image/svg+xml</dc:format>
        <dc:type
           rdf:resource="http://purl.org/dc/dcmitype/StillImage" />
        <cc:license
           rdf:resource="http://creativecommons.org/publicdomain/zero/1.0/" />
        <dc:publisher>
          <cc:Agent
             rdf:about="http://openclipart.org/">
            <dc:title>Openclipart</dc:title>
          </cc:Agent>
        </dc:publisher>
        <dc:date>2010-03-08T06:52:32</dc:date>
        <dc:description>Weather icon from Tango Project: http://tango.freedesktop.org/Tango_Desktop_Project\n&lt;br&gt; &lt;br&gt;\nTango Project icons are Public Domain.</dc:description>
        <dc:source>https://openclipart.org/detail/30139/tango-waether-severe-alert-by-warszawianka</dc:source>
        <dc:creator>
          <cc:Agent>
            <dc:title>warszawianka</dc:title>
          </cc:Agent>
        </dc:creator>
        <dc:subject>
          <rdf:Bag>
            <rdf:li>alert</rdf:li>
            <rdf:li>cloud</rdf:li>
            <rdf:li>icon</rdf:li>
            <rdf:li>weather</rdf:li>
          </rdf:Bag>
        </dc:subject>
      </cc:Work>
      <cc:License
         rdf:about="http://creativecommons.org/licenses/publicdomain/">
        <cc:permits
           rdf:resource="http://creativecommons.org/ns#Reproduction" />
        <cc:permits
           rdf:resource="http://creativecommons.org/ns#Distribution" />
        <cc:permits
           rdf:resource="http://creativecommons.org/ns#DerivativeWorks" />
      </cc:License>
    </rdf:RDF>
  </metadata>
</svg>
