<?xml version="1.0" encoding="UTF-8" standalone="no"?>
<svg
   id="weather"
   viewBox="0 0 50.900003 50.900002"
   version="1.0"
   sodipodi:docname="w_rain3.svg"
   inkscape:version="1.1.2 (b8e25be833, 2022-02-05)"
   width="50.900002"
   height="50.900002"
   xmlns:inkscape="http://www.inkscape.org/namespaces/inkscape"
   xmlns:sodipodi="http://sodipodi.sourceforge.net/DTD/sodipodi-0.dtd"
   xmlns="http://www.w3.org/2000/svg"
   xmlns:svg="http://www.w3.org/2000/svg"
   xmlns:rdf="http://www.w3.org/1999/02/22-rdf-syntax-ns#"
   xmlns:cc="http://creativecommons.org/ns#"
   xmlns:dc="http://purl.org/dc/elements/1.1/">
  <defs
     id="defs335" />
  <sodipodi:namedview
     id="namedview333"
     pagecolor="#ffffff"
     bordercolor="#666666"
     borderopacity="1.0"
     inkscape:pageshadow="2"
     inkscape:pageopacity="0.0"
     inkscape:pagecheckerboard="0"
     showgrid="false"
     inkscape:zoom="10.875075"
     inkscape:cx="26.712458"
     inkscape:cy="29.976804"
     inkscape:window-width="1600"
     inkscape:window-height="961"
     inkscape:window-x="-8"
     inkscape:window-y="-8"
     inkscape:window-maximized="1"
     inkscape:current-layer="weather" />
  <metadata
     id="metadata330">
    <rdf:RDF>
      <cc:Work>
        <dc:format>image/svg+xml</dc:format>
        <dc:type
           rdf:resource="http://purl.org/dc/dcmitype/StillImage" />
        <cc:license
           rdf:resource="http://creativecommons.org/publicdomain/zero/1.0/" />
        <dc:publisher>
          <cc:Agent
             rdf:about="http://openclipart.org/">
            <dc:title>Openclipart</dc:title>
          </cc:Agent>
        </dc:publisher>
        <dc:date>2011-02-26T13:49:52</dc:date>
        <dc:description>Coloured icon with stylised sun partly covered by a cloud that is releasing raindrops. I tried to make it especially suited for lowest resolutions. It is designed to be easily recognised as/associated with the symbols for weather conditions found in the popular weather forecasts in newspapers (at least around here...), symbolising a weather condition like &quot;showers and sunny periods&quot;.</dc:description>
        <dc:source>https://openclipart.org/detail/122887/showers-and-sunny-periods-by-pawnk</dc:source>
        <dc:creator>
          <cc:Agent>
            <dc:title>pawnk</dc:title>
          </cc:Agent>
        </dc:creator>
        <dc:subject>
          <rdf:Bag>
            <rdf:li>Cloud</rdf:li>
            <rdf:li>Clouds</rdf:li>
            <rdf:li>Sun</rdf:li>
            <rdf:li>Weather</rdf:li>
            <rdf:li>cleanup</rdf:li>
            <rdf:li>cloudy</rdf:li>
            <rdf:li>drops</rdf:li>
            <rdf:li>light</rdf:li>
            <rdf:li>rain</rdf:li>
            <rdf:li>rainy</rdf:li>
            <rdf:li>ray</rdf:li>
          </rdf:Bag>
        </dc:subject>
      </cc:Work>
      <cc:License
         rdf:about="http://creativecommons.org/licenses/publicdomain/">
        <cc:permits
           rdf:resource="http://creativecommons.org/ns#Reproduction" />
        <cc:permits
           rdf:resource="http://creativecommons.org/ns#Distribution" />
        <cc:permits
           rdf:resource="http://creativecommons.org/ns#DerivativeWorks" />
      </cc:License>
    </rdf:RDF>
  </metadata>
  <path
     id="use326"
     style="fill:#5cbdf5;stroke:#000000;stroke-width:2.78759"
     d="m 30.810479,31.308811 c 0.954816,3.096919 3.590459,6.065315 2.983239,9.557596 -0.974023,2.702957 -4.934879,2.4698 -5.580284,-0.450091 -1.133989,-3.65122 0.309834,-7.514078 1.965416,-10.630186 0.21058,0.507448 0.42116,1.014894 0.63174,1.522384 z" />
  <path
     id="use326-0"
     style="fill:#5cbdf5;stroke:#000000;stroke-width:2.78759"
     d="m 25.449933,35.432349 c 0.406395,3.247579 2.483766,6.73761 1.290027,10.030556 -1.418426,2.438164 -5.264284,1.340957 -5.397447,-1.665106 -2.273377,-13.214144 0.443135,-17.218318 2.600949,-19.912356 0.119693,0.544002 1.386947,11.002594 1.506633,11.546639 z"
     sodipodi:nodetypes="cccccc" />
  <path
     id="use326-0-2"
     style="fill:#5cbdf5;stroke:#000000;stroke-width:2.78759"
     d="m 18.568799,38.048483 c 0.406394,3.247579 2.483765,6.737613 1.290025,10.03056 -1.418425,2.438165 -5.264283,1.340955 -5.397444,-1.665107 -2.27338,-13.214145 0.443135,-17.21832 2.600947,-19.912358 0.119693,0.544003 1.386947,11.002595 1.506632,11.54664 z"
     sodipodi:nodetypes="cccccc" />
  <path
     style="fill:#ffffff;stroke:#000000;stroke-width:2.78759"
     d="m 39.018366,12.608043 c 3.718568,-0.05973 7.177326,2.151114 9.051772,5.785305 1.874595,3.63436 1.874595,8.129165 0,11.763778 -1.874595,3.634362 -5.333204,5.845037 -9.051772,5.785732 H 11.926318 c -3.7184922,0.05951 -7.1773252,-2.1512 -9.0517712,-5.785732 -1.87459498,-3.634358 -1.87459498,-8.129164 0,-11.763778 1.874596,-3.634359 5.333205,-5.845035 9.0517712,-5.78573 h 27.092048 z"
     id="path321" />
  <path
     style="fill:#ffffff;stroke:#000000;stroke-width:2.78759;stroke-linecap:round"
     d="M 16.64856,13.739517 C 16.808789,6.9049186 21.754151,1.4148724 27.832714,1.4148724 c 6.179644,0 11.184155,5.6628809 11.184155,12.6554876 -10e-7,3.062734 -0.949764,5.884009 -2.550362,8.074943"
     id="path323" />
</svg>
