<?xml version="1.0" encoding="UTF-8" standalone="no"?>
<svg
   id="weather"
   viewBox="0 0 50.900002 50.900002"
   version="1.0"
   sodipodi:docname="w_very_cloudy.svg"
   width="50.900002"
   height="50.900002"
   inkscape:version="1.1.2 (b8e25be833, 2022-02-05)"
   xmlns:inkscape="http://www.inkscape.org/namespaces/inkscape"
   xmlns:sodipodi="http://sodipodi.sourceforge.net/DTD/sodipodi-0.dtd"
   xmlns="http://www.w3.org/2000/svg"
   xmlns:svg="http://www.w3.org/2000/svg"
   xmlns:rdf="http://www.w3.org/1999/02/22-rdf-syntax-ns#"
   xmlns:cc="http://creativecommons.org/ns#"
   xmlns:dc="http://purl.org/dc/elements/1.1/">
  <defs
     id="defs2261" />
  <sodipodi:namedview
     id="namedview2259"
     pagecolor="#ffffff"
     bordercolor="#666666"
     borderopacity="1.0"
     inkscape:pageshadow="2"
     inkscape:pageopacity="0.0"
     inkscape:pagecheckerboard="0"
     showgrid="false"
     inkscape:zoom="10.875075"
     inkscape:cx="24.965344"
     inkscape:cy="27.402109"
     inkscape:window-width="1600"
     inkscape:window-height="961"
     inkscape:window-x="-8"
     inkscape:window-y="-8"
     inkscape:window-maximized="1"
     inkscape:current-layer="weather" />
  <metadata
     id="metadata2256">
    <rdf:RDF>
      <cc:Work>
        <dc:format>image/svg+xml</dc:format>
        <dc:type
           rdf:resource="http://purl.org/dc/dcmitype/StillImage" />
        <cc:license
           rdf:resource="http://creativecommons.org/publicdomain/zero/1.0/" />
        <dc:publisher>
          <cc:Agent
             rdf:about="http://openclipart.org/">
            <dc:title>Openclipart</dc:title>
          </cc:Agent>
        </dc:publisher>
        <dc:date>2011-02-26T13:49:52</dc:date>
        <dc:description>Coloured icon with stylised sun partly covered by a cloud that is releasing raindrops. I tried to make it especially suited for lowest resolutions. It is designed to be easily recognised as/associated with the symbols for weather conditions found in the popular weather forecasts in newspapers (at least around here...), symbolising a weather condition like &quot;showers and sunny periods&quot;.</dc:description>
        <dc:source>https://openclipart.org/detail/122887/showers-and-sunny-periods-by-pawnk</dc:source>
        <dc:creator>
          <cc:Agent>
            <dc:title>pawnk</dc:title>
          </cc:Agent>
        </dc:creator>
        <dc:subject>
          <rdf:Bag>
            <rdf:li>Cloud</rdf:li>
            <rdf:li>Clouds</rdf:li>
            <rdf:li>Sun</rdf:li>
            <rdf:li>Weather</rdf:li>
            <rdf:li>cleanup</rdf:li>
            <rdf:li>cloudy</rdf:li>
            <rdf:li>drops</rdf:li>
            <rdf:li>light</rdf:li>
            <rdf:li>rain</rdf:li>
            <rdf:li>rainy</rdf:li>
            <rdf:li>ray</rdf:li>
          </rdf:Bag>
        </dc:subject>
      </cc:Work>
      <cc:License
         rdf:about="http://creativecommons.org/licenses/publicdomain/">
        <cc:permits
           rdf:resource="http://creativecommons.org/ns#Reproduction" />
        <cc:permits
           rdf:resource="http://creativecommons.org/ns#Distribution" />
        <cc:permits
           rdf:resource="http://creativecommons.org/ns#DerivativeWorks" />
      </cc:License>
    </rdf:RDF>
  </metadata>
  <path
     style="fill:#ffffff;stroke:#000000;stroke-width:2.26725"
     d="m 19.974703,12.606423 c -2.399131,-0.06124 -4.630644,2.205559 -5.83999,5.931734 -1.209437,3.726349 -1.209437,8.33492 0,12.061529 1.209447,3.726348 3.440859,5.992979 5.83999,5.93217 h 17.479145 c 2.399075,0.061 4.630632,-2.205649 5.839978,-5.93217 1.209448,-3.726348 1.209448,-8.33492 0,-12.061529 C 42.08439,14.811809 39.852968,12.54518 37.453848,12.605986 H 19.974703 Z"
     id="path2247-6" />
  <path
     style="fill:#ffffff;stroke:#000000;stroke-width:2.2657;stroke-linecap:round"
     d="M 34.361484,13.766536 C 34.258305,6.7589477 31.07198,1.1299423 27.155592,1.1299423 c -3.981507,0 -7.205889,5.8062139 -7.205889,12.9758107 0,3.140253 0.611921,6.032936 1.643177,8.279325"
     id="path2249-8" />
  <path
     style="fill:#ffffff;stroke:#000000;stroke-width:1.7697"
     d="m 6.0076471,26.457816 c -1.7915825,-0.04997 -3.4579994,1.799447 -4.3611006,4.839513 -0.90316881,3.040207 -0.90316881,6.80019 0,9.840611 0.9031687,3.040209 2.5695181,4.889481 4.3611006,4.839869 H 19.060448 c 1.791548,0.04978 3.457987,-1.799518 4.361088,-4.839869 0.903169,-3.040207 0.903169,-6.800189 0,-9.840611 -0.903168,-3.040208 -2.569505,-4.889477 -4.361088,-4.839868 H 6.0076471 Z"
     id="path2247" />
  <path
     style="fill:#ffffff;stroke:#000000;stroke-width:1.7697;stroke-linecap:round"
     d="m 16.7853,27.404315 c -0.0772,-5.717267 -2.459851,-10.309792 -5.388466,-10.309792 -2.9773268,0 -5.3884667,4.737103 -5.3884667,10.586546 0,2.562036 0.4575888,4.922081 1.2287494,6.754839"
     id="path2249" />
  <path
     style="fill:#ffffff;stroke:#000000;stroke-width:1.70882"
     d="m 45.31664,30.516572 c 1.670412,-0.04997 3.224124,1.799446 4.066144,4.839518 0.842089,3.040206 0.842089,6.800195 0,9.840615 -0.842088,3.040207 -2.395732,4.889477 -4.066144,4.839866 H 33.146624 c -1.670389,0.04978 -3.224124,-1.799518 -4.066144,-4.839866 -0.842089,-3.040209 -0.842089,-6.800194 0,-9.840615 0.842089,-3.040212 2.395721,-4.889484 4.066144,-4.839871 H 45.31664 Z"
     id="path2247-1" />
  <path
     style="fill:#ffffff;stroke:#000000;stroke-width:1.70882;stroke-linecap:round"
     d="m 35.267907,31.463071 c 0.07203,-5.717267 2.293481,-10.309789 5.024023,-10.309789 2.775967,0 5.024034,4.737102 5.024034,10.586546 0,2.562032 -0.426637,4.922082 -1.145642,6.754841"
     id="path2249-4" />
</svg>
