<?xml version="1.0" encoding="UTF-8" standalone="no"?>
<svg
   id="weather"
   viewBox="0 0 50.900002 50.900001"
   version="1.0"
   sodipodi:docname="w_sunny_cloudy&amp;rainy.svg"
   width="50.900002"
   height="50.900002"
   inkscape:version="1.1.2 (b8e25be833, 2022-02-05)"
   xmlns:inkscape="http://www.inkscape.org/namespaces/inkscape"
   xmlns:sodipodi="http://sodipodi.sourceforge.net/DTD/sodipodi-0.dtd"
   xmlns:xlink="http://www.w3.org/1999/xlink"
   xmlns="http://www.w3.org/2000/svg"
   xmlns:svg="http://www.w3.org/2000/svg"
   xmlns:rdf="http://www.w3.org/1999/02/22-rdf-syntax-ns#"
   xmlns:cc="http://creativecommons.org/ns#"
   xmlns:dc="http://purl.org/dc/elements/1.1/">
  <defs
     id="defs4066" />
  <sodipodi:namedview
     id="namedview4064"
     pagecolor="#ffffff"
     bordercolor="#666666"
     borderopacity="1.0"
     inkscape:pageshadow="2"
     inkscape:pageopacity="0.0"
     inkscape:pagecheckerboard="0"
     showgrid="false"
     inkscape:zoom="7.6898396"
     inkscape:cx="25.033032"
     inkscape:cy="24.447844"
     inkscape:window-width="1600"
     inkscape:window-height="961"
     inkscape:window-x="-8"
     inkscape:window-y="-8"
     inkscape:window-maximized="1"
     inkscape:current-layer="weather" />
  <path
     style="fill:#ffff00;stroke:#000000;stroke-width:1.95193"
     d="m 41.113801,19.681306 a 8.5974192,8.9369483 0 1 1 -17.194838,0 8.5974192,8.9369483 0 1 1 17.194838,0 z"
     id="path4048" />
  <path
     style="stroke:#000000;stroke-width:1.95193;stroke-linejoin:round"
     d="M 32.419564,0.99474004 32.274268,9.2749568 Z M 23.454016,3.3402092 c 0,0 3.940016,7.4005948 3.940016,7.4005948 0,0 -3.940016,-7.4005948 -3.940016,-7.4005948 z m 17.871472,0.2842992 -4.008391,6.9209826 z m -24.512011,6.4146446 7.05106,4.40664 z m 30.949068,0.479755 -6.640812,3.820414 z m -33.481662,8.768928 c 0,0 8.221906,0.159918 8.221906,0.159918 0,0 -8.221906,-0.159918 -8.221906,-0.159918 z m 28.246905,0.470856 c 0,0 7.495494,0.08884 7.495494,0.08884 0,0 -7.495494,-0.08884 -7.495494,-0.08884 z m -18.897092,4.726476 -7.085247,4.131153 z m 17.427038,0.639673 6.435688,3.971377 z m -14.016788,3.278254 -4.059809,7.116298 z m 10.093728,0.515295 3.717936,6.87663 z m -5.16228,1.154964 -0.08547,8.066992 z"
     id="path4050" />
  <path
     style="fill:#ffffff;stroke:#000000;stroke-width:1.95193"
     d="m 8.5546487,21.030021 c -2.7166586,-0.04009 -5.2435093,1.443672 -6.6129153,3.882676 -1.36951544,2.439116 -1.36951544,5.455704 0,7.894991 1.3695154,2.439117 3.8962567,3.922762 6.6129153,3.88296 H 28.347174 c 2.716604,0.03993 5.24351,-1.443728 6.612915,-3.88296 1.369515,-2.439117 1.369515,-5.455704 0,-7.894991 -1.369515,-2.439117 -3.896256,-3.922762 -6.612915,-3.882959 H 8.5546487 Z"
     id="path4052" />
  <path
     style="fill:#ffffff;stroke:#000000;stroke-width:1.95193;stroke-linecap:round"
     d="m 24.897266,21.789385 c -0.117057,-4.586884 -3.72997,-8.271404 -8.170761,-8.271404 -4.514636,0 -8.1707622,3.800514 -8.1707622,8.493441 2e-7,2.055485 0.6938651,3.948919 1.8632072,5.419315"
     id="path4054" />
  <path
     id="drop"
     style="fill:#5cbdf5;stroke:#000000;stroke-width:1.95193"
     d="m 11.225634,41.601633 c -0.697558,2.078428 -2.6230683,4.070599 -2.1794541,6.414362 0.7115879,1.814028 3.6052551,1.657549 4.0767661,-0.302069 0.828453,-2.450432 -0.226355,-5.0429 -1.435866,-7.134206 -0.153843,0.340562 -0.307685,0.681125 -0.461529,1.021714 z" />
  <use
     xlink:href="#drop"
     transform="translate(7.7356259,-1.2923393)"
     id="use4057"
     x="0"
     y="0"
     width="100%"
     height="100%" />
  <use
     xlink:href="#drop"
     transform="translate(14.366319,0.57436982)"
     id="use4059"
     x="0"
     y="0"
     width="100%"
     height="100%" />
  <metadata
     id="metadata4061">
    <rdf:RDF>
      <cc:Work>
        <dc:format>image/svg+xml</dc:format>
        <dc:type
           rdf:resource="http://purl.org/dc/dcmitype/StillImage" />
        <cc:license
           rdf:resource="http://creativecommons.org/publicdomain/zero/1.0/" />
        <dc:publisher>
          <cc:Agent
             rdf:about="http://openclipart.org/">
            <dc:title>Openclipart</dc:title>
          </cc:Agent>
        </dc:publisher>
        <dc:date>2011-02-26T13:49:52</dc:date>
        <dc:description>Coloured icon with stylised sun partly covered by a cloud that is releasing raindrops. I tried to make it especially suited for lowest resolutions. It is designed to be easily recognised as/associated with the symbols for weather conditions found in the popular weather forecasts in newspapers (at least around here...), symbolising a weather condition like &quot;showers and sunny periods&quot;.</dc:description>
        <dc:source>https://openclipart.org/detail/122887/showers-and-sunny-periods-by-pawnk</dc:source>
        <dc:creator>
          <cc:Agent>
            <dc:title>pawnk</dc:title>
          </cc:Agent>
        </dc:creator>
        <dc:subject>
          <rdf:Bag>
            <rdf:li>Cloud</rdf:li>
            <rdf:li>Clouds</rdf:li>
            <rdf:li>Sun</rdf:li>
            <rdf:li>Weather</rdf:li>
            <rdf:li>cleanup</rdf:li>
            <rdf:li>cloudy</rdf:li>
            <rdf:li>drops</rdf:li>
            <rdf:li>light</rdf:li>
            <rdf:li>rain</rdf:li>
            <rdf:li>rainy</rdf:li>
            <rdf:li>ray</rdf:li>
          </rdf:Bag>
        </dc:subject>
      </cc:Work>
      <cc:License
         rdf:about="http://creativecommons.org/licenses/publicdomain/">
        <cc:permits
           rdf:resource="http://creativecommons.org/ns#Reproduction" />
        <cc:permits
           rdf:resource="http://creativecommons.org/ns#Distribution" />
        <cc:permits
           rdf:resource="http://creativecommons.org/ns#DerivativeWorks" />
      </cc:License>
    </rdf:RDF>
  </metadata>
</svg>
