<?xml version="1.0" encoding="UTF-8" standalone="no"?>
<!-- Created with Inkscape (http://www.inkscape.org/) -->

<svg
   id="svg2"
   version="1.1"
   inkscape:version="1.1.2 (b8e25be833, 2022-02-05)"
   width="56.85146"
   height="40.111622"
   sodipodi:docname="Portal1a.svg"
   xmlns:inkscape="http://www.inkscape.org/namespaces/inkscape"
   xmlns:sodipodi="http://sodipodi.sourceforge.net/DTD/sodipodi-0.dtd"
   xmlns:xlink="http://www.w3.org/1999/xlink"
   xmlns="http://www.w3.org/2000/svg"
   xmlns:svg="http://www.w3.org/2000/svg"
   xmlns:rdf="http://www.w3.org/1999/02/22-rdf-syntax-ns#"
   xmlns:cc="http://creativecommons.org/ns#"
   xmlns:dc="http://purl.org/dc/elements/1.1/">
  <metadata
     id="metadata8">
    <rdf:RDF>
      <cc:Work
         rdf:about="">
        <dc:format>image/svg+xml</dc:format>
        <dc:type
           rdf:resource="http://purl.org/dc/dcmitype/StillImage" />
      </cc:Work>
    </rdf:RDF>
  </metadata>
  <defs
     id="defs6">
    <linearGradient
       x1="186.42"
       y1="248.05"
       gradientTransform="matrix(1.1115,0,0,1.1115,27.807,-31.68)"
       x2="195.7"
       gradientUnits="userSpaceOnUse"
       y2="254.92"
       id="linearGradient3839">
      <stop
         offset="0"
         stop-color="#f2f2f2"
         id="stop3412-2" />
      <stop
         offset="1"
         stop-color="#afa2a2"
         id="stop3414-8" />
    </linearGradient>
    <linearGradient
       id="linearGradient3410">
      <stop
         offset="0"
         style="stop-color:rgb(242, 242, 242)"
         id="stop3412" />
      <stop
         offset="1"
         style="stop-color:rgb(175, 162, 162)"
         id="stop3414" />
    </linearGradient>
    <linearGradient
       x1="186.42"
       y1="248.05"
       gradientTransform="matrix(1.1115,0,0,1.1115,27.807,-31.68)"
       x2="195.7"
       gradientUnits="userSpaceOnUse"
       y2="254.92"
       id="linearGradient3839-3">
      <stop
         offset="0"
         stop-color="#f2f2f2"
         id="stop3412-2-6" />
      <stop
         offset="1"
         stop-color="#afa2a2"
         id="stop3414-8-7" />
    </linearGradient>
    <linearGradient
       inkscape:collect="always"
       x1="186.42"
       y1="248.05"
       x2="195.7"
       gradientUnits="userSpaceOnUse"
       xlink:href="#linearGradient3410-3"
       y2="254.92"
       id="linearGradient3484-5" />
    <linearGradient
       id="linearGradient3410-3">
      <stop
         offset="0"
         style="stop-color:rgb(242, 242, 242)"
         id="stop3412-5" />
      <stop
         offset="1"
         style="stop-color:rgb(175, 162, 162)"
         id="stop3414-6" />
    </linearGradient>
    <linearGradient
       inkscape:collect="always"
       x1="186.42"
       y1="248.05"
       gradientTransform="translate(-44.738,-8.1871)"
       x2="195.7"
       gradientUnits="userSpaceOnUse"
       xlink:href="#linearGradient3410-3"
       y2="254.92"
       id="linearGradient3482-2" />
    <linearGradient
       id="linearGradient3174">
      <stop
         offset="0"
         style="stop-color:rgb(242, 242, 242)"
         id="stop3176" />
      <stop
         offset="1"
         style="stop-color:rgb(175, 162, 162)"
         id="stop3178" />
    </linearGradient>
    <linearGradient
       inkscape:collect="always"
       x1="186.42"
       y1="248.05"
       gradientTransform="translate(49.012,-1.8121)"
       x2="195.7"
       gradientUnits="userSpaceOnUse"
       xlink:href="#linearGradient3410-3"
       y2="254.92"
       id="linearGradient3480-9" />
    <linearGradient
       id="linearGradient3181">
      <stop
         offset="0"
         style="stop-color:rgb(242, 242, 242)"
         id="stop3183" />
      <stop
         offset="1"
         style="stop-color:rgb(175, 162, 162)"
         id="stop3185" />
    </linearGradient>
    <linearGradient
       inkscape:collect="always"
       x1="186.42"
       y1="248.05"
       gradientTransform="matrix(3.7567,0,0,3.7567,-619.7,-825.45)"
       x2="195.7"
       gradientUnits="userSpaceOnUse"
       xlink:href="#linearGradient3410-3"
       y2="254.92"
       id="linearGradient3489-1" />
    <linearGradient
       id="linearGradient3188">
      <stop
         offset="0"
         style="stop-color:rgb(242, 242, 242)"
         id="stop3190" />
      <stop
         offset="1"
         style="stop-color:rgb(175, 162, 162)"
         id="stop3192" />
    </linearGradient>
    <linearGradient
       gradientUnits="userSpaceOnUse"
       y2="46.978371"
       x2="29.705372"
       y1="61.728371"
       x1="14.774293"
       id="linearGradient5758-2"
       xlink:href="#linearGradient5752-7"
       inkscape:collect="always" />
    <linearGradient
       id="linearGradient5752-7"
       inkscape:collect="always">
      <stop
         id="stop5754-0"
         offset="0"
         style="stop-color:#183767;stop-opacity:1" />
      <stop
         style="stop-color:#093679;stop-opacity:1"
         offset="0.15296786"
         id="stop5760-9" />
      <stop
         id="stop5762-3"
         offset="0.41918695"
         style="stop-color:#0044aa;stop-opacity:1;" />
      <stop
         style="stop-color:#0044aa;stop-opacity:1;"
         offset="0.55848801"
         id="stop5766-6" />
      <stop
         id="stop5768-0"
         offset="0.65319347"
         style="stop-color:#2a5fae;stop-opacity:1" />
      <stop
         style="stop-color:#0044aa;stop-opacity:1;"
         offset="0.75363874"
         id="stop5764-6" />
      <stop
         id="stop5756-2"
         offset="1"
         style="stop-color:#094297;stop-opacity:1" />
    </linearGradient>
    <pattern
       patternTransform="matrix(1.35,0,0,1.4125,-1.7716573,-7.454901)"
       id="pattern5727-6"
       xlink:href="#Polkadots-large-1"
       inkscape:collect="always" />
    <pattern
       inkscape:collect="always"
       patternUnits="userSpaceOnUse"
       width="10"
       height="10"
       patternTransform="translate(0,0) scale(10,10)"
       id="Polkadots-large-1"
       inkscape:stockid="Polka dots, large">
      <circle
         style="fill:black;stroke:none"
         cx="2.567"
         cy="0.810"
         r="0.45"
         id="circle5417-8" />
      <circle
         style="fill:black;stroke:none"
         cx="3.048"
         cy="2.33"
         r="0.45"
         id="circle5419-7" />
      <circle
         style="fill:black;stroke:none"
         cx="4.418"
         cy="2.415"
         r="0.45"
         id="circle5421-9" />
      <circle
         style="fill:black;stroke:none"
         cx="1.844"
         cy="3.029"
         r="0.45"
         id="circle5423-2" />
      <circle
         style="fill:black;stroke:none"
         cx="6.08"
         cy="1.363"
         r="0.45"
         id="circle5425-0" />
      <circle
         style="fill:black;stroke:none"
         cx="5.819"
         cy="4.413"
         r="0.45"
         id="circle5427-2" />
      <circle
         style="fill:black;stroke:none"
         cx="4.305"
         cy="4.048"
         r="0.45"
         id="circle5429-3" />
      <circle
         style="fill:black;stroke:none"
         cx="5.541"
         cy="3.045"
         r="0.45"
         id="circle5431-7" />
      <circle
         style="fill:black;stroke:none"
         cx="4.785"
         cy="5.527"
         r="0.45"
         id="circle5433-5" />
      <circle
         style="fill:black;stroke:none"
         cx="2.667"
         cy="5.184"
         r="0.45"
         id="circle5435-9" />
      <circle
         style="fill:black;stroke:none"
         cx="7.965"
         cy="1.448"
         r="0.45"
         id="circle5437-2" />
      <circle
         style="fill:black;stroke:none"
         cx="7.047"
         cy="5.049"
         r="0.45"
         id="circle5439-2" />
      <circle
         style="fill:black;stroke:none"
         cx="4.340"
         cy="0.895"
         r="0.45"
         id="circle5441-8" />
      <circle
         style="fill:black;stroke:none"
         cx="7.125"
         cy="0.340"
         r="0.45"
         id="circle5443-9" />
      <circle
         style="fill:black;stroke:none"
         cx="9.553"
         cy="1.049"
         r="0.45"
         id="circle5445-7" />
      <circle
         style="fill:black;stroke:none"
         cx="7.006"
         cy="2.689"
         r="0.45"
         id="circle5447-3" />
      <circle
         style="fill:black;stroke:none"
         cx="8.909"
         cy="2.689"
         r="0.45"
         id="circle5449-6" />
      <circle
         style="fill:black;stroke:none"
         cx="9.315"
         cy="4.407"
         r="0.45"
         id="circle5451-1" />
      <circle
         style="fill:black;stroke:none"
         cx="7.820"
         cy="3.870"
         r="0.45"
         id="circle5453-2" />
      <circle
         style="fill:black;stroke:none"
         cx="8.270"
         cy="5.948"
         r="0.45"
         id="circle5455-9" />
      <circle
         style="fill:black;stroke:none"
         cx="7.973"
         cy="7.428"
         r="0.45"
         id="circle5457-3" />
      <circle
         style="fill:black;stroke:none"
         cx="9.342"
         cy="8.072"
         r="0.45"
         id="circle5459-1" />
      <circle
         style="fill:black;stroke:none"
         cx="8.206"
         cy="9.315"
         r="0.45"
         id="circle5461-9" />
      <circle
         style="fill:black;stroke:none"
         cx="9.682"
         cy="9.475"
         r="0.45"
         id="circle5463-4" />
      <circle
         style="fill:black;stroke:none"
         cx="9.688"
         cy="6.186"
         r="0.45"
         id="circle5465-7" />
      <circle
         style="fill:black;stroke:none"
         cx="3.379"
         cy="6.296"
         r="0.45"
         id="circle5467-8" />
      <circle
         style="fill:black;stroke:none"
         cx="2.871"
         cy="8.204"
         r="0.45"
         id="circle5469-4" />
      <circle
         style="fill:black;stroke:none"
         cx="4.59"
         cy="8.719"
         r="0.45"
         id="circle5471-5" />
      <circle
         style="fill:black;stroke:none"
         cx="3.181"
         cy="9.671"
         r="0.45"
         id="circle5473-0" />
      <circle
         style="fill:black;stroke:none"
         cx="5.734"
         cy="7.315"
         r="0.45"
         id="circle5475-3" />
      <circle
         style="fill:black;stroke:none"
         cx="6.707"
         cy="6.513"
         r="0.45"
         id="circle5477-6" />
      <circle
         style="fill:black;stroke:none"
         cx="5.730"
         cy="9.670"
         r="0.45"
         id="circle5479-1" />
      <circle
         style="fill:black;stroke:none"
         cx="6.535"
         cy="8.373"
         r="0.45"
         id="circle5481-0" />
      <circle
         style="fill:black;stroke:none"
         cx="4.37"
         cy="7.154"
         r="0.45"
         id="circle5483-6" />
      <circle
         style="fill:black;stroke:none"
         cx="0.622"
         cy="7.25"
         r="0.45"
         id="circle5485-3" />
      <circle
         style="fill:black;stroke:none"
         cx="0.831"
         cy="5.679"
         r="0.45"
         id="circle5487-2" />
      <circle
         style="fill:black;stroke:none"
         cx="1.257"
         cy="8.519"
         r="0.45"
         id="circle5489-0" />
      <circle
         style="fill:black;stroke:none"
         cx="1.989"
         cy="6.877"
         r="0.45"
         id="circle5491-6" />
      <circle
         style="fill:black;stroke:none"
         cx="0.374"
         cy="3.181"
         r="0.45"
         id="circle5493-1" />
      <circle
         style="fill:black;stroke:none"
         cx="1.166"
         cy="1.664"
         r="0.45"
         id="circle5495-5" />
      <circle
         style="fill:black;stroke:none"
         cx="1.151"
         cy="0.093"
         r="0.45"
         id="circle5497-5" />
      <circle
         style="fill:black;stroke:none"
         cx="1.151"
         cy="10.093"
         r="0.45"
         id="circle5499-4" />
      <circle
         style="fill:black;stroke:none"
         cx="1.302"
         cy="4.451"
         r="0.45"
         id="circle5501-7" />
      <circle
         style="fill:black;stroke:none"
         cx="3.047"
         cy="3.763"
         r="0.45"
         id="circle5503-6" />
    </pattern>
  </defs>
  <sodipodi:namedview
     pagecolor="#ffffff"
     bordercolor="#666666"
     borderopacity="1"
     objecttolerance="10"
     gridtolerance="10"
     guidetolerance="10"
     inkscape:pageopacity="0"
     inkscape:pageshadow="2"
     inkscape:window-width="1600"
     inkscape:window-height="961"
     id="namedview4"
     showgrid="false"
     inkscape:zoom="6.8256574"
     inkscape:cx="-1.9778315"
     inkscape:cy="28.715183"
     inkscape:window-x="-8"
     inkscape:window-y="-8"
     inkscape:window-maximized="1"
     inkscape:current-layer="svg2"
     fit-margin-top="0"
     fit-margin-left="0"
     fit-margin-right="0"
     fit-margin-bottom="0"
     inkscape:pagecheckerboard="0" />
  <path
     style="fill:#ffff00;stroke:#000000;stroke-width:0.160319"
     d="m 30.555594,39.881657 c -3.22036,-0.2697 -13.2448,-0.79507 -16.9136,-0.88643 -2.07212,-0.0516 -5.5710697,-0.0179 -7.7754497,0.0749 -4.04781,0.1704 -5.20573002,0.10208 -5.64061002,-0.33279 -0.21117,-0.21118 -0.20153,-0.30987 0.084,-0.86033 0.17743,-0.34198 0.54027,-0.85625 0.80632002,-1.14282 l 0.48373,-0.52103 h 1.97519 c 4.39785,0 19.0129897,0.79269 24.0144797,1.30249 4.30012,0.4383 7.30441,0.46346 8.49688,0.0711 3.01672,-0.9925 4.51293,-2.8459 4.96544,-6.15081 0.14943,-1.09138 0.11891,-1.62492 -0.23395,-4.09019 -0.271,-1.89337 -0.37315,-3.14141 -0.30753,-3.75731 0.296,-2.77797 1.33019,-4.85275 3.03081,-6.08031 l 0.48092,-0.34714 -0.34193,-0.3736 c -0.43108,-0.471 -0.72331,-1.06015 -1.17936,-2.37757 -0.46273,-1.33675 -1.00326,-2.04958 -1.82794,-2.41058 -1.07128,-0.46897 -2.03692,-0.53955 -3.3586,-0.2455 -2.34079,0.52077 -3.97057,1.87499 -6.57303,5.46165 -2.81131,3.87448 -4.33077,5.39639 -6.19099,6.20095 -1.52958,0.66157 -3.49256,0.66775 -14.03464,0.0442 -2.2043797,-0.13038 -4.7293997,-0.27902 -5.6111497,-0.33031 -1.87476,-0.10904 -3.39154,-0.58309 -3.64977,-1.14068 -0.39680002,-0.85677 1.25771,-3.46683 7.24381,-11.42741 6.6669097,-8.8659504 7.5777497,-9.9286904 8.7760297,-10.2396704 0.37788,-0.0981 5.35335,-0.17146 12.88009,-0.18998 6.7454,-0.0166 14.28438,-0.0386 16.75328,-0.0489 3.92639,-0.0163 4.6086,0.018 5.44399,0.27419 1.27801,0.39189 2.31835,0.93782 2.84343,1.4921 1.82992,1.93168 2.11413,6.98511 0.59973,10.6634704 -0.70722,1.71779 -1.78878,3.5705 -6.76919,11.59567 -7.61429,12.26926 -9.02576,14.22192 -11.0054,15.22507 -1.34924,0.68371 -3.74255,0.85924 -7.46504,0.54749 z"
     id="path36752" />
  <path
     style="fill:#ffff00;stroke:#000000;stroke-width:0.160319"
     d="m 39.064434,16.507197 c -0.38063,-0.4206 -0.26179,-0.99451 0.26721,-1.29042 0.53314,-0.29821 0.92467,-0.11296 1.16046,0.54907 0.13363,0.37516 0.10104,0.48644 -0.21815,0.74491 -0.47742,0.38658 -0.85745,0.38547 -1.20952,-0.004 z"
     id="path36791" />
  <path
     style="fill:#ffff00;stroke:#000000;stroke-width:0.160319"
     d="m 17.649954,27.547977 c -2.60117,-0.059 -6.75842,-0.1174 -9.2383497,-0.1298 l -4.50896,-0.0226 -0.1002,-0.50099 c -0.0551,-0.27555 -0.1002,-0.75441 -0.1002,-1.06415 v -0.56314 l 0.84431,0.0992 c 2.59878,0.30543 17.6819597,0.90294 22.8828297,0.90648 1.71941,10e-4 3.38894,0.0751 3.71005,0.1643 0.77043,0.21399 1.01742,0.51253 0.78435,0.94802 -0.1733,0.32382 -0.27716,0.33024 -4.86076,0.30037 -2.57602,-0.0168 -6.8119,-0.0788 -9.41307,-0.13777 z"
     id="path36830" />
  <path
     style="fill:#ffff00;stroke:#000000;stroke-width:0.160319"
     d="m 3.5954343,30.533477 c 0.0588,-0.15309 0.10681,-0.64472 0.10681,-1.09252 v -0.81418 l 4.44884,0.11112 c 2.4468597,0.0611 7.3345697,0.17931 10.8615797,0.26268 10.37826,0.24529 12.10404,0.4142 12.10404,1.18469 0,0.61394 -0.25679,0.6301 -6.61676,0.41643 -5.8834,-0.19765 -18.8377297,-0.12578 -20.3834697,0.1131 -0.55043,0.0851 -0.61468,0.0627 -0.52104,-0.18132 z"
     id="path36869" />
  <path
     style="fill:#ffff00;stroke:#000000;stroke-width:0.160319"
     d="m 26.307154,34.681507 c -5.08596,-0.46194 -10.9591,-0.75828 -16.9135997,-0.85341 l -6.25242,-0.0999 0.0342,-0.48095 c 0.0188,-0.26453 0.0756,-0.64856 0.12624,-0.85341 l 0.092,-0.37244 9.0119197,0.0692 c 4.95655,0.0381 9.98585,0.1501 11.17621,0.24898 1.19037,0.0989 3.64324,0.24751 5.45083,0.3303 1.80759,0.0828 3.48493,0.22675 3.72741,0.3199 0.80936,0.31093 0.4377,1.3855 -0.61804,1.78689 -0.53778,0.20447 -2.97314,0.16475 -5.83478,-0.0952 z"
     id="path36908" />
  <text
     xml:space="preserve"
     style="font-size:10.6667px;line-height:1.25;font-family:'Berlin Sans FB';-inkscape-font-specification:'Berlin Sans FB';letter-spacing:0.82px;fill:#000080;opacity:1"
     x="15.797253"
     y="9.741806"
     id="text82024-7"><tspan
       sodipodi:role="line"
       id="tspan82022-0"
       x="15.797253"
       y="9.741806"
       style="font-style:normal;font-variant:normal;font-weight:bold;font-stretch:normal;font-family:'Futura Md BT';-inkscape-font-specification:'Futura Md BT Bold';fill:#000080"
       dx="0">Portal</tspan></text>
</svg>
