<?xml version="1.0" encoding="UTF-8" standalone="no"?>
<svg
   id="weather"
   viewBox="0 0 50.900002 50.900001"
   version="1.0"
   sodipodi:docname="w_sunny&amp;cloudy.svg"
   width="50.900002"
   height="50.900002"
   inkscape:version="1.1.2 (b8e25be833, 2022-02-05)"
   xmlns:inkscape="http://www.inkscape.org/namespaces/inkscape"
   xmlns:sodipodi="http://sodipodi.sourceforge.net/DTD/sodipodi-0.dtd"
   xmlns="http://www.w3.org/2000/svg"
   xmlns:svg="http://www.w3.org/2000/svg"
   xmlns:rdf="http://www.w3.org/1999/02/22-rdf-syntax-ns#"
   xmlns:cc="http://creativecommons.org/ns#"
   xmlns:dc="http://purl.org/dc/elements/1.1/">
  <defs
     id="defs2261" />
  <sodipodi:namedview
     id="namedview2259"
     pagecolor="#ffffff"
     bordercolor="#666666"
     borderopacity="1.0"
     inkscape:pageshadow="2"
     inkscape:pageopacity="0.0"
     inkscape:pagecheckerboard="0"
     showgrid="false"
     inkscape:zoom="7.6898396"
     inkscape:cx="21.651947"
     inkscape:cy="23.40751"
     inkscape:window-width="1600"
     inkscape:window-height="961"
     inkscape:window-x="-8"
     inkscape:window-y="-8"
     inkscape:window-maximized="1"
     inkscape:current-layer="weather" />
  <path
     style="fill:#ffff00;stroke:#000000;stroke-width:2.2245"
     d="m 40.942339,25.687559 a 8.5234545,11.70789 0 1 1 -17.046909,0 8.5234545,11.70789 0 1 1 17.046909,0 z"
     id="path2243" />
  <path
     style="stroke:#000000;stroke-width:2.2245;stroke-linejoin:round"
     d="M 32.322898,1.2071368 32.178852,12.054673 Z m -8.888415,3.0726929 c 0,0 3.906118,9.6951833 3.906118,9.6951833 0,0 -3.906118,-9.6951833 -3.906118,-9.6951833 z m 17.717721,0.3724477 -3.973905,9.0668636 z m -24.301132,8.4035346 6.9904,5.772936 z m 30.682809,0.628505 -6.58368,5.004952 z M 14.340269,25.172091 c 0,0 8.151171,0.209501 8.151171,0.209501 0,0 -8.151171,-0.209501 -8.151171,-0.209501 z m 28.003891,0.616848 c 0,0 7.431008,0.116385 7.431008,0.116385 0,0 -7.431008,-0.116385 -7.431008,-0.116385 z m -18.734516,6.191941 -7.024293,5.412035 z m 17.27711,0.838007 6.38032,5.20272 z m -13.896199,4.294693 -4.024882,9.322734 z m 10.006889,0.67506 3.685951,9.008764 z m -5.117868,1.513071 -0.08474,10.5682 z"
     id="path2245" />
  <path
     style="fill:#ffffff;stroke:#000000;stroke-width:2.2245"
     d="m 8.6632975,27.454449 c -2.693287,-0.05252 -5.1983987,1.89129 -6.5560237,5.086517 -1.35773326,3.195377 -1.35773326,7.14727 0,10.34287 1.3577333,3.195376 3.8627367,5.139032 6.5560237,5.08689 H 28.285543 c 2.693233,0.05232 5.198401,-1.891364 6.556023,-5.08689 1.357735,-3.195377 1.357735,-7.147269 0,-10.34287 -1.357731,-3.195377 -3.862737,-5.139032 -6.556023,-5.086888 H 8.6632975 Z"
     id="path2247" />
  <path
     style="fill:#ffffff;stroke:#000000;stroke-width:2.2245;stroke-linecap:round"
     d="m 24.865316,28.449257 c -0.11605,-6.00907 -3.697879,-10.835989 -8.100467,-10.835989 -4.475793,0 -8.100467,4.978879 -8.100467,11.126872 10e-8,2.692795 0.6878957,5.173295 1.847178,7.099594"
     id="path2249" />
  <metadata
     id="metadata2256">
    <rdf:RDF>
      <cc:Work>
        <dc:format>image/svg+xml</dc:format>
        <dc:type
           rdf:resource="http://purl.org/dc/dcmitype/StillImage" />
        <cc:license
           rdf:resource="http://creativecommons.org/publicdomain/zero/1.0/" />
        <dc:publisher>
          <cc:Agent
             rdf:about="http://openclipart.org/">
            <dc:title>Openclipart</dc:title>
          </cc:Agent>
        </dc:publisher>
        <dc:date>2011-02-26T13:49:52</dc:date>
        <dc:description>Coloured icon with stylised sun partly covered by a cloud that is releasing raindrops. I tried to make it especially suited for lowest resolutions. It is designed to be easily recognised as/associated with the symbols for weather conditions found in the popular weather forecasts in newspapers (at least around here...), symbolising a weather condition like &quot;showers and sunny periods&quot;.</dc:description>
        <dc:source>https://openclipart.org/detail/122887/showers-and-sunny-periods-by-pawnk</dc:source>
        <dc:creator>
          <cc:Agent>
            <dc:title>pawnk</dc:title>
          </cc:Agent>
        </dc:creator>
        <dc:subject>
          <rdf:Bag>
            <rdf:li>Cloud</rdf:li>
            <rdf:li>Clouds</rdf:li>
            <rdf:li>Sun</rdf:li>
            <rdf:li>Weather</rdf:li>
            <rdf:li>cleanup</rdf:li>
            <rdf:li>cloudy</rdf:li>
            <rdf:li>drops</rdf:li>
            <rdf:li>light</rdf:li>
            <rdf:li>rain</rdf:li>
            <rdf:li>rainy</rdf:li>
            <rdf:li>ray</rdf:li>
          </rdf:Bag>
        </dc:subject>
      </cc:Work>
      <cc:License
         rdf:about="http://creativecommons.org/licenses/publicdomain/">
        <cc:permits
           rdf:resource="http://creativecommons.org/ns#Reproduction" />
        <cc:permits
           rdf:resource="http://creativecommons.org/ns#Distribution" />
        <cc:permits
           rdf:resource="http://creativecommons.org/ns#DerivativeWorks" />
      </cc:License>
    </rdf:RDF>
  </metadata>
</svg>
